<?xml version="1.0" standalone="no"?>
<!DOCTYPE svg PUBLIC "-//W3C//DTD SVG 20010904//EN"
 "http://www.w3.org/TR/2001/REC-SVG-20010904/DTD/svg10.dtd">
<svg version="1.0" xmlns="http://www.w3.org/2000/svg"
 width="512.000000pt" height="512.000000pt" viewBox="0 0 512.000000 512.000000"
 preserveAspectRatio="xMidYMid meet">
<metadata>
Created by potrace 1.16, written by Peter Selinger 2001-2019
</metadata>
<g transform="translate(0.000000,512.000000) scale(0.100000,-0.100000)"
fill="#000000" stroke="none">
<path d="M72 3820 c-48 -30 -72 -75 -72 -140 0 -65 24 -110 72 -140 33 -20 56
-20 2488 -20 2432 0 2455 0 2488 20 48 30 72 75 72 140 0 65 -24 110 -72 140
-33 20 -56 20 -2488 20 -2432 0 -2455 0 -2488 -20z"/>
<path d="M72 2700 c-48 -30 -72 -75 -72 -140 0 -65 24 -110 72 -140 33 -20 56
-20 2488 -20 2432 0 2455 0 2488 20 48 30 72 75 72 140 0 65 -24 110 -72 140
-33 20 -56 20 -2488 20 -2432 0 -2455 0 -2488 -20z"/>
<path d="M1672 1580 c-48 -30 -72 -75 -72 -140 0 -65 24 -110 72 -140 33 -20
54 -20 1688 -20 1634 0 1655 0 1688 20 48 30 72 75 72 140 0 65 -24 110 -72
140 -33 20 -54 20 -1688 20 -1634 0 -1655 0 -1688 -20z"/>
</g>
</svg>
