<?xml version="1.0" standalone="no"?>
<!DOCTYPE svg PUBLIC "-//W3C//DTD SVG 20010904//EN"
 "http://www.w3.org/TR/2001/REC-SVG-20010904/DTD/svg10.dtd">
<svg version="1.0" xmlns="http://www.w3.org/2000/svg"
 width="225.000000pt" height="225.000000pt" viewBox="0 0 225.000000 225.000000"
 preserveAspectRatio="xMidYMid meet">
<metadata>
Created by potrace 1.16, written by Peter Selinger 2001-2019
</metadata>
<g transform="translate(0.000000,225.000000) scale(0.100000,-0.100000)"
fill="#000000" stroke="none">
<path d="M853 2226 c-187 -49 -358 -144 -498 -278 -130 -123 -216 -251 -279
-413 -56 -145 -70 -228 -69 -410 0 -140 3 -172 26 -258 128 -482 507 -807
1002 -859 456 -47 905 196 1119 605 60 114 103 251 86 272 -20 24 -32 18 -100
-51 -113 -114 -249 -192 -411 -235 -109 -29 -318 -32 -423 -6 -416 104 -696
453 -696 867 0 259 97 473 302 664 78 73 91 89 82 104 -16 25 -38 24 -141 -2z
m-76 -138 c-108 -120 -181 -271 -216 -445 -103 -505 212 -989 726 -1115 131
-32 322 -29 457 6 113 29 256 96 334 155 28 23 52 37 52 33 -1 -17 -79 -157
-119 -212 -66 -90 -216 -228 -309 -284 -91 -54 -231 -110 -331 -132 -37 -9
-116 -18 -177 -21 -586 -30 -1089 418 -1121 999 -22 407 188 789 542 984 64
35 190 92 208 93 5 1 -16 -27 -46 -61z"/>
</g>
</svg>
